<?xml version="1.0" encoding="UTF-8" standalone="no"?>
<svg
   width="59"
   height="60"
   viewBox="0 0 156.2 158.5"
   version="1.1"
   id="svg680"
   sodipodi:docname="logo.svg"
   inkscape:version="1.2.2 (b0a8486541, 2022-12-01)"
   xmlns:inkscape="http://www.inkscape.org/namespaces/inkscape"
   xmlns:sodipodi="http://sodipodi.sourceforge.net/DTD/sodipodi-0.dtd"
   xmlns="http://www.w3.org/2000/svg"
   xmlns:svg="http://www.w3.org/2000/svg">
  <defs
     id="defs684" />
  <sodipodi:namedview
     id="namedview682"
     pagecolor="#ffffff"
     bordercolor="#666666"
     borderopacity="1.0"
     inkscape:showpageshadow="2"
     inkscape:pageopacity="0.0"
     inkscape:pagecheckerboard="0"
     inkscape:deskcolor="#d1d1d1"
     showgrid="false"
     inkscape:zoom="15.733333"
     inkscape:cx="27.680085"
     inkscape:cy="41.758475"
     inkscape:window-width="1728"
     inkscape:window-height="1011"
     inkscape:window-x="0"
     inkscape:window-y="0"
     inkscape:window-maximized="1"
     inkscape:current-layer="svg680" />
  <g
     inkscape:groupmode="layer"
     id="layer1"
     inkscape:label="Layer 1"
     style="clip-rule:evenodd;fill-rule:evenodd;image-rendering:optimizeQuality;shape-rendering:geometricPrecision;text-rendering:geometricPrecision">
    <rect
       style="fill:#ffffff;fill-opacity:1;stroke-width:2.64746"
       id="rect966"
       width="49.099236"
       height="131.88319"
       x="2.6926584"
       y="13.473281" />
  </g>
  <g
     inkscape:groupmode="layer"
     id="g2735"
     inkscape:label="Layer 1 copy"
     style="clip-rule:evenodd;fill-rule:evenodd;image-rendering:optimizeQuality;shape-rendering:geometricPrecision;text-rendering:geometricPrecision">
    <rect
       style="fill:#ffffff;fill-opacity:1;stroke-width:2.64746"
       id="rect2733"
       width="22.401396"
       height="37.310513"
       x="130.25821"
       y="110.24926" />
    <rect
       style="fill:#ffffff;fill-opacity:1;stroke-width:2.64746"
       id="rect2737"
       width="50.167362"
       height="26.338745"
       x="97.146362"
       y="127.82105" />
  </g>
  <g
     style="clip-rule:evenodd;fill-rule:evenodd;image-rendering:optimizeQuality;shape-rendering:geometricPrecision;text-rendering:geometricPrecision"
     id="g362">
    <path
       style="display:inline;opacity:1"
       fill="#011019"
       d="M231.5 54.5c-1.1 0-2.1.4-3 1a5.5 5.5 0 0 0-3-1.5l1-1c-3.5-1-6.5-.1-9 2.5l1 2a90 90 0 0 1-8.5 2c-1 .4-1.6 1-2 2a6.5 6.5 0 0 0-4.5-1v8h-8v8h8v8h24v16h-8v-8h-8v32l-12 2c-.2-3.8.8-4.4 3-2 1-2.6 1.3-5.3 1-8h-8c.3 2.7 0 5.4-1 8-1.8 0-3.8.3-6 1-.5-3-.8-6-1-9h-16v6c-2.8-.5-4.8.5-6 3-7.1-.7-14.4-1-22-1-.2 3 0 6 1 9-2.2 1-4.6 1.3-7 1 .2 1.3-.2 2.5-1 3.5-6.8 1.6-13.5 2.7-20 3.5-5.8-.1-8.8-3.1-9-9-8.3.2-16.7 0-25-.5-2.3-2.5-2.6-5.3-1-8.5-.3-1.7-1-3.2-2-4.5-5.7-2.1-11.7-3-18-2.5v8h-10v6h-4v-22h4v-24c-4.8.5-6.8-1.6-6-6.5a24 24 0 0 1 2-7.5l-2-4a6.3 6.3 0 0 0 1-7c-1 .6-2 1-3 1a47 47 0 0 1 24-31c8.2.8 15.7-1.2 22.5-6 2.2.6 4.4 1.5 6.5 2.5 15.7.7 31.3.7 47 0 .5-.7 1.2-1.2 2-1.5 1.8 1.3 3.8 2.3 6 3a4.9 4.9 0 0 1-4 1v8h-8v8h-12v4h4v4a57 57 0 0 1-19-2c-2.5.7-4.7 2-6.5 4a4 4 0 0 1-2-1 13 13 0 0 1-.5-5c-3.4-1-6.7-1-10 0a12.2 12.2 0 0 0-14 1 31 31 0 0 1 2 2 5.8 5.8 0 0 1-4 2c-1.5-.7-3.2-.5-5 .5-1.4 2-2.9 3.8-4.5 5.5l-1-1a8 8 0 0 1-5.5 2c-.2 4.6 0 9 1 13.5L60 77.5a79 79 0 0 0-2.5 15 9 9 0 0 1 5.5 1c.5 2.3.7 4.6.5 7h8v4h4v-4c4.6.2 9 0 13.5-1 1.8.6 3.6 1 5.5 1.5 1 2.4 1.3 4.9 1 7.5h16v-8c-4 .3-8 0-12-1 2.5-1.6 5.2-2.6 8-3v-4h4c-.4-2.9.1-5.6 1.5-8 1.2 5.3 2 10.6 2.5 16h8v-16h8v8h8v8h8v-16h8v-8h16v-8h8v-8c-5 .2-10 0-15-.5-1-3-1.3-6.2-1-9.5h-8v-14h8v-8c-1.5.3-2.8 0-4-1 4-.8 8-1.8 12-3a250 250 0 0 0 28 3c-4 1-8 1.3-12 1v8h24v8h8v-8h8v-8c-1.5.3-2.8 0-4-1 8.2-.5 16.2-1.5 24-3a8 8 0 0 1 5.5 2 17.5 17.5 0 0 1 17.5-1 25.7 25.7 0 0 1 16.5-1c5.6-.4 5.8-1.3.5-2.5 3.3-.5 6.7-.7 10-.5v7h4c.7 5.3 1.3 5.3 2 0h4v6c-3.7 0-7.4-.3-11-1v3a25 25 0 0 0-7 .5l4 1a20.9 20.9 0 0 1-12.5.5 23 23 0 0 0-12 4 17.3 17.3 0 0 0-13.5-1c-1.7 1.7-3.7 3-6 4l-14 2c-2 2-3.3 4.3-4 7z"
       transform="matrix(.26458 0 0 .26458 -8.3 -4.9)"
       id="path360" />
  </g>
  <g
     style="clip-rule:evenodd;fill-rule:evenodd;image-rendering:optimizeQuality;shape-rendering:geometricPrecision;text-rendering:geometricPrecision"
     id="g366">
    <path
       style="opacity:1"
       fill="#fafbfb"
       d="M81.5 51.5c23.4-.5 32.6 10.5 27.5 33-9.1 13.9-21 16.7-35.5 8.5C63 82.8 61.9 71.6 70 59.5c2.7-1.9 5.2-3.9 7.5-6 1.7-.2 3-.8 4-2z"
       transform="matrix(.26458 0 0 .26458 -8.3 -4.9)"
       id="path364" />
  </g>
  <g
     style="clip-rule:evenodd;display:inline;fill-rule:evenodd;image-rendering:optimizeQuality;shape-rendering:geometricPrecision;text-rendering:geometricPrecision"
     id="g370">
    <path
       style="opacity:1"
       fill="#051218"
       d="M605.5 438.5c-16-.2-32 0-48 .5-1.5.7-2.8 1.5-4 2.5a67.7 67.7 0 0 0 2-21h8v17c3.8.6 7.1-.3 10-2.5 10.7-.7 21.4-.6 32 .5v-7h-4v-32h4c-.3 2.3.4 4.3 2 6 2-2 2.4-4.1 1-6.5 1.8-4.8 3.1-9.8 4-15 .1-1.5-.2-3.2-1-5l2.5-3.5a64.9 64.9 0 0 0 1.5-32.5c2.1-17.1 2.4-34.3 1-51.5-4-7-5.9-14.8-5.5-23-1-.8-2.2-1.2-3.5-1v4h-6c0 4-2 6-6 6 .1-2.4-.9-4.2-3-5.5-4-.7-8-.7-12 0-1 2.4-1.3 4.9-1 7.5h-8c-.3 2.7 0 5.4 1 8 2-2.4 4.3-4.2 7-5.5a61 61 0 0 1 17 .5c3-.1 5.7-1.1 8-3 2.1.3 3.8 1.3 5 3a4.9 4.9 0 0 1-4 1c-.4 3-1 5.7-2 8.5.8 4.4 3.4 6.3 8 5.5v6h-8c.3-1.5 0-2.8-1-4-2 2.1-4.3 3-7 2.5 1-.3 1.6-.8 2-1.5h3c.3-5.2 0-10.2-1-15h-20c.3 5.8-.4 11.5-2 17 2.3.6 4.7 1.5 7 2.5-5.7.5-6 1.1-1 2-2.6.5-5.3.7-8 .5a65 65 0 0 0 1-10.5 6.4 6.4 0 0 1-4-5 25 25 0 0 0-7-.5c-.3 2.5-1 4.8-2.5 7l-1-2c-.4 1.2-1 2.2-2 3-.4-.2-.6-.6-.5-1 0-3.7.4-7.4 1-11 .9-.7 1.2-1.7 1-3-47.8-.3-95.5 0-143 1-.3 5.2.3 10.2 2 15h138c-7.1 1.3-14.6 2-22.5 2-30.8.4-56.3 1-76.5 2v3h48c.2 3.8-.8 4.4-3 2a30.6 30.6 0 0 1-9 3l9 2c2.3-.5 4.3-1.5 6-3 3 2.3 6.3 3.8 10 4.5l30 1c2.5 2.2 5.5 3 9 2.5v12c1.3.2 2.5-.2 3.5-1 2-7.8 6.8-12.1 14.5-13 2.6.1 5 .8 7 2a86 86 0 0 1-15 3 91 91 0 0 1-33 38l6 5c4.7-4 9-8.4 13-13 0 1.3.7 2 2 2.5a19 19 0 0 1-5 3c2.2 1.2 3.2 3 3 5.5a8 8 0 0 0-6 3c-3.3.8-6.6 1.2-10 1 .3 5.4 0 10.7-1 16-1.6-5.2-2.6-5.2-3 0h-8v8c4.1 0 8.1.7 12 2-.1 1 0 2 .5 3 .8-2.7 2.3-3.7 4.5-3a121.1 121.1 0 0 1-16 17.5c-7 4.2-14.4 7.9-22 11-17 5.8-34 11.8-51 18-2.7 3.4-6 6-10 8-6.3 1.5-10.6-.6-13-6.5-.3-5.5 1.7-10 6-13.5a745 745 0 0 1 64-25c5.6-2.1 11-4.8 16-8 3.7-3.8 5.2-8.3 4.5-13.5-1-1.6-2.1-3-3.5-4-1-1.4-2.4-2.6-4-3.5-4-.7-8-.7-12 0-18.8 7.8-37.8 15.1-57 22-15.6 4-31.3 7.6-47 11a175.7 175.7 0 0 0-62 38.5c-.6-.8-1-1.8-1-3a26 26 0 0 0 3-11h4a9.8 9.8 0 0 0-5-10c-1 .6-2 1-3 1 3.9-4 8.2-7.5 13-10.5l-4-2c-8.3.3-16.7.3-25 0-18.2-8-36.5-15.6-55-23a182.2 182.2 0 0 0-43-5.5v6a132 132 0 0 1 59 22c-1.4 0-2.8.3-4 1a12.8 12.8 0 0 0-6-3l-2-3c-1 3-1.3 6-1 9-2.8.4-5.5 1.4-8 3a7 7 0 0 1 5.5 4c2-1 4.2-1.3 6.5-1v4h-5c-.3-.8-1-1.2-2-1-13-7.8-27-12.3-42-13.5 1.6 4.9 3.2 9.7 5 14.5v1l2 2a6 6 0 0 0-2 5h8v-5l8-1c.3 5 0 9.8-1 14.5 3.7.5 7.3.7 11 .5v-3c4-.3 8 0 12 1 1.1.8 1.8 1.8 2 3-9.7-.3-19.4 0-29 1 .1.6.5 1 1 1 1.8 4.9 4.1 9.6 7 14a241 241 0 0 0 31 1c-6.8.8-13.8 1.3-21 1.5a26 26 0 0 1-17 3.5 26 26 0 0 0-2-11 13 13 0 0 1 1-4 50.5 50.5 0 0 0-20 0c1.3 1 1.3 2 0 3l-8-9c-55-.8-110-1.3-165-1.5-1.8-.5-3-1.7-3.5-3.5l-1-39a284.3 284.3 0 0 1-9.5-83 273.4 273.4 0 0 1 9.5-85l1-163c.2-1.6.7-2.9 1.5-4 1 0 2-.4 3-1 1.1 2.5.8 4.8-1 7l2 4a24 24 0 0 0-2 7.5c-.8 4.9 1.2 7 6 6.5v24h-4v22h4v-6h10v-8c6.3-.5 12.3.4 18 2.5 1 1.3 1.7 2.8 2 4.5-1.6 3.2-1.3 6 1 8.5 8.3.5 16.7.7 25 .5.2 5.9 3.2 8.9 9 9 6.5-.8 13.2-2 20-3.5.8-1 1.2-2.2 1-3.5 2.4.3 4.8 0 7-1-1-3-1.2-6-1-9 7.6 0 14.9.3 22 1 1.2-2.5 3.2-3.5 6-3v-6h16c.2 3 .5 6 1 9 2.2-.7 4.2-1 6-1 1-2.6 1.3-5.3 1-8h8c.3 2.7 0 5.4-1 8-2.2-2.4-3.2-1.8-3 2l12-2v-32h8v8h8v24h8v8h-8v8h16v8h8v4h4v4h4v-8h8c-.2 3 0 6 .5 9a8.4 8.4 0 0 1 5.5-2.5 86 86 0 0 0 14.5-16.5c.7.8 1.5 1 2.5 1a41.3 41.3 0 0 1-43 22.5 54.5 54.5 0 0 1-19-7c-7.6-6-15-12.3-22-19a44.2 44.2 0 0 0-44-8c-7.6 3.5-15 7.5-22 12-4.3 1.5-8.6 2.8-13 4-6.7.3-13.4 0-20-1a114.5 114.5 0 0 0-16 20c15 6.9 30.4 7.2 46 1 7.8-4.4 15.5-9 23-14 12.4-4 24.4-3 36 3 9.8 9 20 17.4 31 25a57.7 57.7 0 0 0 51 1 42 42 0 0 0 19-22.5 10 10 0 0 1 2 7c-.5 3-1.2 6-2 9h10c.2 4.7 0 9.3-.5 14-1-1.2-1.5-.9-1.5 1s.5 2.2 1.5 1c-.1 6.4 0 12.7.5 19l8 1v4c-2.5 0-4.5 1-6 3a110 110 0 0 0 11 21l2 10c2 1.5 3 3.5 3 6 1.5-.3 2.8 0 4 1-1.5 2-3.5 3-6 3 .2 3.8-.8 4.4-3 2-3 1.6-6.4 2.5-10 2.5-.7 2-1.7 3.8-3 5.5.8 1.6 2.2 2.3 4 2v4c-1.4-.2-2.7 0-4 .5 1.2.7 1.2 1.2 0 1.5a14.7 14.7 0 0 1-4.5-17 36 36 0 0 1 4.5-3.5l16-1c-8.2-13-14.4-26.7-18.5-41.5a144.1 144.1 0 0 1-1-32c-15.5 22.3-36.7 30.4-63.5 24.5-6.2-4.1-7.9-3-5 3.5a65 65 0 0 1 1 47c-.9-2.1-1.6-4.5-2-7 .7-2.3 1-4.6 1-7h-4v4h-4v-8a13 13 0 0 1-9-2c2.4-19.4-5-33.6-22-42.5a38.9 38.9 0 0 0-12-2.5c-1.8-.7-3.8-1-6-1-3.3-.2-6.3.5-9 2-7.5 2-14.5 5.2-21 9.5-8 3.7-16.4 4.4-25 2a77.1 77.1 0 0 0-26-12c-6.7-.7-13.3-.7-20 0-5 8-8.6 16.4-10.5 25.5 3-2.5 6.5-4 10.5-4.5a47 47 0 0 1 25 3l16 9a39.1 39.1 0 0 0 30-1 105 105 0 0 1 21-11c19.4-3.2 33.2 4 41.5 21.5 1.3 5.5 3 10.8 5 16 1.5-3.2 2.3-6.5 2.5-10 1.6 2 2.6 4.3 3 7-1.1 3.4-2.8 5.8-5 7a4.5 4.5 0 0 1-1.5-2l-1 1c-.6-1.5-1.4-2.8-2.5-4a5 5 0 0 1 0-5.5c-.7-3-1.7-5-3-5.5h-3v-4h-6v-4h-8v-8h-4v8h-8v8h-8v-8h-8v8h-16v-4h-4v4h-4v8h-8v-8h-4c.3-2.6 0-5.1-1-7.5-7-.5-14-.7-21-.5a21 21 0 0 0-8-14.5c-1 1.3-3 2.1-6 2.5v-3h-4c-.7 4-1.3 4-2 0h-6c.3 2.4 0 4.8-1 7a7.1 7.1 0 0 0-7-3c-4.2.4-8.2 1.4-12 3v8h8v16c6.2.5 12.2-.2 18-2l12 4a47.7 47.7 0 0 1 18-2v-8h8v24h4v-8h16a25 25 0 0 0 .5 7c1 1.3 2 1.3 3 0 .5-2.3.7-4.6.5-7a8 8 0 0 1 8.5 4c4.4-2.8 4.3-4.1-.5-4v-8h8v6c5 1.1 10 1.3 15 .5l7 1.5c1.2.2 1.9 1 2 2-6-1-12-1.1-18-.5-8 2.5-15.7 5.9-23 10a33.9 33.9 0 0 1-37-7 43.4 43.4 0 0 0-53.5 8.5 8.8 8.8 0 0 0-1.5 5 37.1 37.1 0 0 0 0 17 38.1 38.1 0 0 1 45-12.5 130 130 0 0 0 23 13c9.3 1.3 18.3.3 27-3 4.3-3.2 9-5.8 14-8 9.6-1.2 19.3-1.9 29-2 4.7-.9 8.7-3 12-6.5l-1.5-3c-4.5-4.3-9.3-8-14.5-11h11c-.5 2-.7 4-.5 6l1-1c1.4.7 2.9 1.2 4.5 1.5-2.3 2-1.6 3.4 2 4a5 5 0 0 1 1 2.5 7 7 0 0 0-2.5 5c-2.1-1.4-2.6-1-1.5 1-3.3 2.3-3.3 3.7 0 4v7h4v-8c6.9 1.5 10.2-1.2 10-8h4v-4h6v-12h4v4h4c-11 31-33 44.5-66 40.5a55.4 55.4 0 0 0-29 31.5 187.5 187.5 0 0 1-43 56.5c21.4-5.7 43.1-6 65-1 5 2 10 3.8 15 5.5a93.6 93.6 0 0 1 23.5 14 79.7 79.7 0 0 1 24.5-73.5 31.1 31.1 0 0 1 31-2.5 43.6 43.6 0 0 0 35-1.5c2.6-2 4.4-4.4 5.5-7.5.7-8 .7-16 0-24a29 29 0 0 1-10-8c-2.2-3.4-2-6.5.5-9.5 6.7-.5 13.3-.7 20-.5v4h-4c-1.2 14.6-2.2 29.3-3 44l-2 4c-2.1-1.4-3.1-.7-3 2-3.9 1.3-7.9 2-12 2v8a13 13 0 0 0 9-2c2.8 3.7 5.3 3.4 7.5-1 1.7 1.4 3.6 2.4 5.5 3-1.3-.2-2.3.1-3 1a54.5 54.5 0 0 1-57 3.5c-5-1-9.2.6-12.5 4.5a78.7 78.7 0 0 0-6.5 10c18.7 1.2 36.9 4.9 54.5 11a94.6 94.6 0 0 1 89.5-8.5l34 14c19 2.7 37.4 0 55-8a118 118 0 0 1-18-10c-7.2 1.1-14.6 2-22 2.5-6-.2-12-1-18-2.5-11.6-4.5-23-9.5-34-15-6.5-2.1-13.2-3.6-20-4.5v-1c2.5-.3 4.8-.8 7-1.5a9 9 0 0 0 1-5.5c-2-.2-3.7.5-5 2l-2-9-2 1c-1-2.6-1.3-5.3-1-8 1.3-.2 2.5.2 3.5 1 .5-3 .7-6 .5-9a35 35 0 0 0-14 2c.3 2.1 0 4.1-1 6a9 9 0 0 0-4-3c-6.5 4.2-8.8 10.2-7 18l-6 1v-8h-4l-2-8c-2.7.3-5.4 0-8-1-1.2-9.5-1.2-11.8 0-7a13 13 0 0 0 9-2l2-18c3.4-1.8 7-2.5 11-2v3c-2.4 1-4.6 2.3-6.5 4a153 153 0 0 1-3 27 84 84 0 0 1 83-20l2.5-1a46.7 46.7 0 0 1-2-17h-42l41-2a214 214 0 0 1 5-4l4 2c1.8-1.3 3.8-2 6-2 .3-2.4 0-4.8-1-7-.6.2-1 .5-1.5 1l-9.5-2-11 4a4.9 4.9 0 0 1-1-4c-22 0-37.3-.5-46-1.5a8 8 0 0 0-2 5.5h-6c.3 1.5 0 2.8-1 4-1-2.6-1.3-5.3-1-8h-4v-8c3.2-1 6.6-1.7 10-2a58 58 0 0 0-7.5-19c-.7-2-.5-4 .5-6l-2.5-1-5-12c-1.1 1.1-2 .8-2.5-1 .8-1.2 1.6-1.2 2.5 0l.5-1.5a20 20 0 0 1-2-19.5 221.3 221.3 0 0 0 21.5 55c1.9 5.6 0 9.2-5.5 11a9 9 0 0 0-5 2.5c2.3.4 4.3-.1 6-1.5 24.6-1 49.3-1.3 74-1a70 70 0 0 1 26-46.5c28.6-21.1 58.6-23.1 90-6a72.4 72.4 0 0 1 34 52.5h33c-1.4-12.3-4-24.3-8-36-4.3-.8-8.6-1.3-13-1.5-7.3-5-7.7-10.3-1-16 2.6-.5 5.3-.7 8-.5a155.9 155.9 0 0 0-21-44c-40-.8-80-1.3-120-1.5-5.6-5.5-5.2-10.5 1-15 35.3-.2 70.7-.7 106-1.5a89.7 89.7 0 0 0-12-15.5l-18-1c-5.3-5-5.3-10 0-15l5-1c-68.8-61-149.2-86-241-75a269.4 269.4 0 0 0-52 13.5c.7-2.7 2-5 4-7l14-2c2.3-1 4.3-2.3 6-4 4.7-1.5 9.2-1.2 13.5 1a23 23 0 0 1 12-4c4.2 1.1 8.3 1 12.5-.5l-4-1a25 25 0 0 1 7-.5v-3c3.6.7 7.3 1 11 1v-6h-4c-.7 5.3-1.3 5.3-2 0h-4v-7c-3.4-.2-6.7 0-10 .5 5.3 1.2 5.1 2-.5 2.5a25.7 25.7 0 0 0-16.5 1c-6.1-2.8-12-2.5-17.5 1a8 8 0 0 0-5.5-2c-7.8 1.5-15.8 2.5-24 3 1.2 1 2.5 1.3 4 1v8h-8v8h-8v-8h-24v-8c4 .3 8 0 12-1a250 250 0 0 1-28-3c-4 1.2-8 2.2-12 3 1.2 1 2.5 1.3 4 1v8h-8v14h8c-.3 3.3 0 6.4 1 9.5 5 .5 10 .7 15 .5v8h-8v8h-16v8h-8v16h-8v-8h-8v-8h-8v16h-8c-.5-5.4-1.3-10.7-2.5-16a12.6 12.6 0 0 0-1.5 8h-4v4c-2.8.4-5.5 1.4-8 3 4 1 8 1.3 12 1v8h-16c.3-2.6 0-5.1-1-7.5-1.9-.4-3.7-1-5.5-1.5-4.4 1-9 1.2-13.5 1v4h-4v-4h-8a25 25 0 0 0-.5-7 9 9 0 0 0-5.5-1c.3-5 1.2-10 2.5-15l2.5-3.5c-1-4.4-1.2-9-1-13.5 2 0 4-.6 5.5-2l1 1c1.6-1.7 3.1-3.6 4.5-5.5 1.8-1 3.5-1.2 5-.5a68.9 68.9 0 0 1-7.5 6c-8.1 12.1-7 23.3 3.5 33.5 14.5 8.2 26.4 5.4 35.5-8.5 5-22.5-4.1-33.5-27.5-33a31 31 0 0 0-2-2c4.5-3.3 9.2-3.6 14-1 3.3-1 6.6-1 10 0a13 13 0 0 0 .5 5 4 4 0 0 0 2 1c1.8-2 4-3.3 6.5-4a57 57 0 0 0 19 2v-4h-4v-4h12v-8h8v-8c1.5.3 2.8 0 4-1-2.2-.7-4.2-1.7-6-3-.8.3-1.5.8-2 1.5-15.7.7-31.3.7-47 0-2-1-4.3-1.9-6.5-2.5a32.5 32.5 0 0 1-22.5 6 29 29 0 0 1 5-3.5c4.1-2 8.4-3.3 13-4l190-1c14-2 28.3-2.8 42.5-2.5a396 396 0 0 1 50.5 2.5l199 1A56 56 0 0 1 610 66.5l1 158c14 58 14 116 0 174l-1 35a11 11 0 0 1-4.5 5z"
       transform="matrix(.26458 0 0 .26458 -8.3 -4.9)"
       id="path368" />
  </g>
  <g
     style="clip-rule:evenodd;fill-rule:evenodd;image-rendering:optimizeQuality;shape-rendering:geometricPrecision;text-rendering:geometricPrecision"
     id="g374">
    <path
       style="opacity:1"
       fill="#011019"
       d="M218.5 238.5v-4a13 13 0 0 0 9 2v8h4v-4h4c0 2.4-.3 4.7-1 7 .4 2.5 1.1 4.9 2 7 .2 1-.2 1.7-1 2h-4v-4h-4v12h-6v4h-4c.2 6.8-3.1 9.5-10 8v8h-4v-7c-3.3-.3-3.3-1.7 0-4-1.1-2-.6-2.4 1.5-1a7 7 0 0 1 2.5-5 5 5 0 0 0-1-2.5c-3.6-.6-4.3-2-2-4-1.6-.3-3.1-.8-4.5-1.5l-1 1c-.2-2 0-4 .5-6h-12c-.1-1-.8-1.8-2-2-2.3-.6-4.7-1-7-1.5-5 .8-10 .6-15-.5v-6h-8v8c4.8-.1 5 1.2.5 4a8 8 0 0 0-8.5-4 25 25 0 0 1-.5 7c-1 1.3-2 1.3-3 0a25 25 0 0 1-.5-7h-16v8h-4v-24h-8v8c-6.2-.5-12.2.2-18 2l-12-4a47.7 47.7 0 0 1-18 2v-16h-8v-8c3.8-1.6 7.8-2.6 12-3 3-.3 5.3.7 7 3 1-2.2 1.3-4.6 1-7h6c.7 4 1.3 4 2 0h4v3c3-.4 5-1.2 6-2.5a21 21 0 0 1 8 14.5c7-.2 14 0 21 .5 1 2.4 1.3 4.9 1 7.5h4v8h8v-8h4v-4h4v4h16v-8h8v8h8v-8h8v-8h4v8h8v4h6v4h3c1.3.6 2.3 2.4 3 5.5a5 5 0 0 0 0 5.5c1 1.2 2 2.5 2.5 4l1-1c.3.8.8 1.5 1.5 2 2.2-1.2 3.9-3.6 5-7-.4-2.7-1.4-5-3-7z"
       transform="matrix(.26458 0 0 .26458 -8.3 -4.9)"
       id="path372" />
  </g>
  <g
     style="clip-rule:evenodd;fill-rule:evenodd;image-rendering:optimizeQuality;shape-rendering:geometricPrecision;text-rendering:geometricPrecision"
     id="g378">
    <path
       style="opacity:1"
       fill="#f9fafa"
       d="M169.5 190.5c5-.8 10-1 15-1 4.1.2 8.1 1 12 2.5 17 9 24.4 23.1 22 42.5v4c-.2 3.5-1 6.8-2.5 10-2-5.2-3.7-10.5-5-16-8.3-17.6-22.1-24.7-41.5-21.5a105 105 0 0 0-21 11 39.1 39.1 0 0 1-30 1l-16-9a47 47 0 0 0-25-3c-4 .5-7.5 2-10.5 4.5 2-9 5.4-17.6 10.5-25.5 6.7-.7 13.3-.7 20 0a77.1 77.1 0 0 1 26 12c8.6 2.4 17 1.7 25-2a74.4 74.4 0 0 1 21-9.5z"
       transform="matrix(.26458 0 0 .26458 -8.3 -4.9)"
       id="path376" />
  </g>
  <g
     style="clip-rule:evenodd;fill-rule:evenodd;image-rendering:optimizeQuality;shape-rendering:geometricPrecision;text-rendering:geometricPrecision"
     id="g382">
    <path
       style="opacity:1"
       fill="#94969a"
       d="M184.5 189.5c-5 0-10 .2-15 1 2.7-1.5 5.7-2.2 9-2 2.2 0 4.2.3 6 1z"
       transform="matrix(.26458 0 0 .26458 -8.3 -4.9)"
       id="path380" />
  </g>
  <g
     style="clip-rule:evenodd;fill-rule:evenodd;image-rendering:optimizeQuality;shape-rendering:geometricPrecision;text-rendering:geometricPrecision"
     id="g386">
    <path
       style="opacity:1"
       fill="#fcfdfd"
       d="M307.5 274.5v2c-6.7-.2-13.3 0-20 .5-2.5 3-2.7 6.1-.5 9.5 2.8 3.4 6 6 10 8 .7 8 .7 16 0 24-1 3-2.9 5.6-5.5 7.5a43.6 43.6 0 0 1-35 1.5 3.6 3.6 0 0 0-3-3c-10-4.3-20.3-7-31-8-3.7 0-7.4.5-11 1.5-26.3 15.7-37 38.7-32 69-.2 1.4-.9 2.2-2 2.5-5-1.7-10-3.6-15-5.5-21.9-5-43.6-4.7-65 1 18-16.1 32.3-35 43-56.5l17-8.5c13.2-4 26.5-7.3 40-10a70 70 0 0 0 47.5-61.5 69 69 0 0 0-4-33c-1.1-3.3-3-6-5.5-8-2.9-6.5-1.2-7.6 5-3.5 26.8 6 48-2.2 63.5-24.5-.9 10.6-.5 21.3 1 32a154.6 154.6 0 0 0 18.5 41.5l-16 1a36 36 0 0 0-4.5 3.5 14.7 14.7 0 0 0 4.5 17z"
       transform="matrix(.26458 0 0 .26458 -8.3 -4.9)"
       id="path384" />
  </g>
  <g
     style="clip-rule:evenodd;fill-rule:evenodd;image-rendering:optimizeQuality;shape-rendering:geometricPrecision;text-rendering:geometricPrecision"
     id="g390">
    <path
       style="opacity:1"
       fill="#f8f9f9"
       d="M290.5 139.5c1.9-4.2 3.5-8.6 5-13 2.9 5.3 4.2 11 4 17 0 4.5-.6 8.8-2 13a42 42 0 0 1-19 22.5 57.7 57.7 0 0 1-51-1c-11-7.6-21.2-16-31-25-11.6-6-23.6-7-36-3-7.5 5-15.2 9.6-23 14a56.5 56.5 0 0 1-46-1c4.6-7.2 9.9-13.9 16-20 6.6 1 13.3 1.3 20 1 4.4-1.2 8.7-2.5 13-4 7-4.5 14.4-8.5 22-12a44.2 44.2 0 0 1 44 8c7 6.7 14.4 13 22 19a54.5 54.5 0 0 0 19 7 41.3 41.3 0 0 0 43-22.5z"
       transform="matrix(.26458 0 0 .26458 -8.3 -4.9)"
       id="path388" />
  </g>
  <g
     style="clip-rule:evenodd;fill-rule:evenodd;image-rendering:optimizeQuality;shape-rendering:geometricPrecision;text-rendering:geometricPrecision"
     id="g394">
    <path
       style="opacity:1"
       fill="#f1f3f4"
       d="M69.5 120.5c10.3-.2 12.7 4 7 12.5-5.5 1.3-8.9-.8-10-6.5.5-2.3 1.5-4.3 3-6z"
       transform="matrix(.26458 0 0 .26458 -8.3 -4.9)"
       id="path392" />
  </g>
  <g
     style="clip-rule:evenodd;fill-rule:evenodd;image-rendering:optimizeQuality;shape-rendering:geometricPrecision;text-rendering:geometricPrecision"
     id="g398">
    <path
       style="opacity:1"
       fill="#f2f5f6"
       d="M574.5 120.5c10.3-.2 12.7 4 7 12.5-9.8 0-12.2-4.2-7-12.5z"
       transform="matrix(.26458 0 0 .26458 -8.3 -4.9)"
       id="path396" />
  </g>
  <g
     style="clip-rule:evenodd;fill-rule:evenodd;image-rendering:optimizeQuality;shape-rendering:geometricPrecision;text-rendering:geometricPrecision"
     id="g402">
    <path
       style="opacity:1"
       fill="#021119"
       d="M304.5 105.5a87.7 87.7 0 0 1 20 58c-.7 11.7-1 23.3-1 35a20 20 0 0 0 2 19.5l-.5 1.5c-.9-1.2-1.7-1.2-2.5 0 .5 1.8 1.4 2.1 2.5 1l5 12 2.5 1c-1 2-1.2 4-.5 6a58 58 0 0 1 7.5 19c-3.4.3-6.8 1-10 2v8h4c-.3 2.7 0 5.4 1 8 1-1.2 1.3-2.5 1-4h6c0-2 .6-4 2-5.5 8.7 1 24 1.5 46 1.5-.3 1.5 0 2.8 1 4l11-4 9.5 2c.4-.5 1-.8 1.5-1 1 2.2 1.3 4.6 1 7-2.2 0-4.2.7-6 2l-4-2a214 214 0 0 0-5 4l-41 2a93 93 0 0 0-32 7v-3c-4-.5-7.6.2-11 2l-2 18a13 13 0 0 1-9 2c-1.2-4.8-1.2-2.5 0 7 2.6 1 5.3 1.3 8 1l2 8h4v8l6-1c-1.8-7.8.5-13.8 7-18a9 9 0 0 1 4 3c1-1.9 1.3-3.9 1-6a35 35 0 0 1 14-2c.2 3 0 6-.5 9-1-.8-2.2-1.2-3.5-1-.3 2.7 0 5.4 1 8l2-1 2 9c1.3-1.5 3-2.2 5-2a9 9 0 0 1-1 5.5c-2.2.7-4.5 1.2-7 1.5-14.1-.5-28.1.5-42 3-2-.6-3.8-1.6-5.5-3-2.2 4.4-4.7 4.7-7.5 1a13 13 0 0 1-9 2v-8c4.1 0 8.1-.7 12-2-.1-2.7.9-3.4 3-2l2-4c.8-14.7 1.8-29.4 3-44h4v-6c1.2-.3 1.2-.8 0-1.5 1.3-.5 2.6-.7 4-.5v-4c-1.8.3-3.2-.4-4-2 1.3-1.7 2.3-3.5 3-5.5 3.6 0 7-.9 10-2.5 2.2 2.4 3.2 1.8 3-2 2.5 0 4.5-1 6-3a4.9 4.9 0 0 0-4-1c0-2.5-1-4.5-3-6l-2-10a110 110 0 0 1-11-21c1.5-2 3.5-3 6-3v-4l-8-1c-.4-6.3-.6-12.6-.5-19-1 1.2-1.5.9-1.5-1s.5-2.2 1.5-1c.5-4.7.7-9.3.5-14h-10c.8-3 1.5-6 2-9 .2-2.7-.5-5-2-7 1.4-4.2 2-8.5 2-13 .2-6-1.1-11.7-4-17-1.5 4.4-3.1 8.8-5 13-1 0-1.8-.2-2.5-1a86 86 0 0 1-14.5 16.5c-2.2.2-4 1-5.5 2.5-.5-3-.7-6-.5-9h-8v8h-4v-4h-4v-4h-8v-8h-16v-8h8v-8h-8v-24h16v-8h28v8h8c.7-5.3 1.3-5.3 2 0h4v8h6a25 25 0 0 0-.5-7c-1-.8-2.2-1.2-3.5-1v-4c4.7.7 7.3 3.3 8 8 1.6.2 3.1-.1 4.5-1 1.3 1 2.8 1.7 4.5 2z"
       transform="matrix(.26458 0 0 .26458 -8.3 -4.9)"
       id="path400" />
  </g>
  <g
     style="clip-rule:evenodd;fill-rule:evenodd;image-rendering:optimizeQuality;shape-rendering:geometricPrecision;text-rendering:geometricPrecision"
     id="g406">
    <path
       style="opacity:1"
       fill="#031117"
       d="m228.5 55.5-18 7.5c29.7 1 56.4 10.4 80 28 5.5 4 10.2 8.9 14 14.5-1.7-.3-3.2-1-4.5-2a6.5 6.5 0 0 1-4.5 1c-.7-4.7-3.3-7.3-8-8v4c1.3-.2 2.5.2 3.5 1 .5 2.3.7 4.6.5 7h-6v-8h-4c-.7-5.3-1.3-5.3-2 0h-8v-8h-28v8h-16v-16h-24v-8h-8v-8h8v-8c1.6-.2 3.1.1 4.5 1 .4-1 1-1.6 2-2a90 90 0 0 0 8.5-2l-1-2a8.5 8.5 0 0 1 9-2.5l-1 1c1.2.2 2.2.7 3 1.5z"
       transform="matrix(.26458 0 0 .26458 -8.3 -4.9)"
       id="path404" />
  </g>
  <g
     style="clip-rule:evenodd;fill-rule:evenodd;image-rendering:optimizeQuality;shape-rendering:geometricPrecision;text-rendering:geometricPrecision"
     id="g410">
    <path
       style="opacity:1"
       fill="#f9fafa"
       d="M557.5 51.5C580.8 51 590 62 585 84.5c-6 10-14.7 14.3-26.5 12.5-14.2-5-19.7-14.8-16.5-29.5a32.9 32.9 0 0 1 15.5-16z"
       transform="matrix(.26458 0 0 .26458 -8.3 -4.9)"
       id="path408" />
  </g>
  <g
     style="clip-rule:evenodd;fill-rule:evenodd;image-rendering:optimizeQuality;shape-rendering:geometricPrecision;text-rendering:geometricPrecision"
     id="g414">
    <path
       style="opacity:1"
       fill="#f0f2f4"
       d="M506.5 48.5c9.3-.5 12 3.3 8 11.5-6.3 3.3-10 1.5-11-5.5a8 8 0 0 1 3-6z"
       transform="matrix(.26458 0 0 .26458 -8.3 -4.9)"
       id="path412" />
  </g>
  <g
     style="clip-rule:evenodd;fill-rule:evenodd;image-rendering:optimizeQuality;shape-rendering:geometricPrecision;text-rendering:geometricPrecision"
     id="g418">
    <path
       style="opacity:1"
       fill="#f1f3f4"
       d="M138.5 48.5c9.2-.6 12 3.2 8 11.5-6.2 3-9.8 1-11-5.5a8 8 0 0 1 3-6z"
       transform="matrix(.26458 0 0 .26458 -8.3 -4.9)"
       id="path416" />
  </g>
  <g
     style="clip-rule:evenodd;fill-rule:evenodd;image-rendering:optimizeQuality;shape-rendering:geometricPrecision;text-rendering:geometricPrecision"
     id="g422">
    <path
       style="opacity:1"
       fill="#fcfcfc"
       d="M340.5 265.5c-.7 0-1-.3-1-1 5.5-1.8 7.4-5.4 5.5-11a221.3 221.3 0 0 1-21.5-55c0-11.7.3-23.3 1-35a87.7 87.7 0 0 0-20-58 57.8 57.8 0 0 0-14-14.5 139.5 139.5 0 0 0-80-28l18-7.5c.9-.6 1.9-1 3-1a269.4 269.4 0 0 1 52-13.5c91.8-11 172.2 14 241 75l-5 1c-5.3 5-5.3 10 0 15l18 1c4.6 4.7 8.6 9.9 12 15.5-35.3.8-70.7 1.3-106 1.5-6.2 4.5-6.6 9.5-1 15 40 .2 80 .7 120 1.5a155.9 155.9 0 0 1 21 44c-2.7-.2-5.4 0-8 .5-6.7 5.7-6.3 11 1 16 4.4.2 8.7.7 13 1.5 4 11.7 6.6 23.7 8 36h-33a72.4 72.4 0 0 0-34-52.5c-31.4-17.1-61.4-15.1-90 6a70 70 0 0 0-26 46.5c-24.7-.3-49.4 0-74 1z"
       transform="matrix(.26458 0 0 .26458 -8.3 -4.9)"
       id="path420" />
  </g>
  <g
     style="clip-rule:evenodd;fill-rule:evenodd;image-rendering:optimizeQuality;shape-rendering:geometricPrecision;text-rendering:geometricPrecision"
     id="g426">
    <path
       style="opacity:1"
       fill="#0b151d"
       d="M368.5 210.5c8.3-.2 16.7 0 25 .5 5.4 1.6 7.5 5 6.5 10.5a11 11 0 0 1-5.5 5.5c-8.7.7-17.3.7-26 0-6.6-5.6-6.6-11.1 0-16.5z"
       transform="matrix(.26458 0 0 .26458 -8.3 -4.9)"
       id="path424" />
  </g>
  <g
     style="clip-rule:evenodd;fill-rule:evenodd;image-rendering:optimizeQuality;shape-rendering:geometricPrecision;text-rendering:geometricPrecision"
     id="g430">
    <path
       style="opacity:1"
       fill="#131a1f"
       d="M540.5 181.5c4.8-.3 7.8 1.9 9 6.5-2.4 6.6-6.2 7.8-11.5 3.5-.7-2.7-.7-5.3 0-8 1-.6 1.8-1.2 2.5-2z"
       transform="matrix(.26458 0 0 .26458 -8.3 -4.9)"
       id="path428" />
  </g>
  <g
     style="clip-rule:evenodd;fill-rule:evenodd;image-rendering:optimizeQuality;shape-rendering:geometricPrecision;text-rendering:geometricPrecision"
     id="g434">
    <path
       style="opacity:1"
       fill="#08131b"
       d="M352.5 176.5c13.3-.2 26.7 0 40 .5 4.7 2.4 6.2 6.3 4.5 11.5a17.8 17.8 0 0 1-5.5 4.5c-13 .7-26 .7-39 0-5.1-3.4-6.3-7.9-3.5-13.5 1.1-1.1 2.3-2.1 3.5-3z"
       transform="matrix(.26458 0 0 .26458 -8.3 -4.9)"
       id="path432" />
  </g>
  <g
     style="clip-rule:evenodd;fill-rule:evenodd;image-rendering:optimizeQuality;shape-rendering:geometricPrecision;text-rendering:geometricPrecision"
     id="g438">
    <path
       style="opacity:1"
       fill="#0d1418"
       d="M482.5 115.5c8.5-.3 12.4 3.7 11.5 12-2.9 4.7-7 6.2-12.5 4.5-6.8-6-6.4-11.4 1-16.5z"
       transform="matrix(.26458 0 0 .26458 -8.3 -4.9)"
       id="path436" />
  </g>
  <g
     style="clip-rule:evenodd;fill-rule:evenodd;image-rendering:optimizeQuality;shape-rendering:geometricPrecision;text-rendering:geometricPrecision"
     id="g442">
    <path
       style="opacity:1"
       fill="#071218"
       d="M370.5 115.5c26.7-.2 53.3 0 80 .5 6 1.7 8.2 5.5 6.5 11.5a17.8 17.8 0 0 1-5.5 4.5c-27.7.7-55.3.7-83 0-5.9-6.4-5.2-12 2-16.5z"
       transform="matrix(.26458 0 0 .26458 -8.3 -4.9)"
       id="path440" />
  </g>
  <g
     style="clip-rule:evenodd;fill-rule:evenodd;image-rendering:optimizeQuality;shape-rendering:geometricPrecision;text-rendering:geometricPrecision"
     id="g446">
    <path
       style="opacity:1"
       fill="#08131a"
       d="M321.5 64.5c28.7-.2 57.3 0 86 .5 4.6 2.5 6 6.4 4.5 11.5l-3.5 3.5c-11.2 1.5-22.6 2-34 1.5-2.7 11-8.2 12.7-16.5 5a13 13 0 0 1-.5-5c-11.3.2-22.7 0-34-.5-7.2-4.7-7.9-10.2-2-16.5z"
       transform="matrix(.26458 0 0 .26458 -8.3 -4.9)"
       id="path444" />
  </g>
  <g
     style="clip-rule:evenodd;fill-rule:evenodd;image-rendering:optimizeQuality;shape-rendering:geometricPrecision;text-rendering:geometricPrecision"
     id="g450">
    <path
       style="opacity:1"
       fill="#f9fafa"
       d="M187.5 254.5h1c5.2 3 10 6.7 14.5 11l1.5 3a21.3 21.3 0 0 1-12 6.5c-9.7.1-19.4.8-29 2-5 2.2-9.7 4.8-14 8a54.9 54.9 0 0 1-27 3 130 130 0 0 1-23-13c-17.3-5.8-32-2-44 11.5-1-5.1-1.3-10.5-1-16 0-1.8.5-3.5 1.5-5a43.4 43.4 0 0 1 53.5-8.5 33.9 33.9 0 0 0 37 7c7.3-4.1 15-7.5 23-10 6-.6 12-.5 18 .5z"
       transform="matrix(.26458 0 0 .26458 -8.3 -4.9)"
       id="path448" />
  </g>
  <g
     style="clip-rule:evenodd;fill-rule:evenodd;image-rendering:optimizeQuality;shape-rendering:geometricPrecision;text-rendering:geometricPrecision"
     id="g454">
    <path
       style="opacity:1"
       fill="#031119"
       d="M553.5 441.5a143.1 143.1 0 0 1-18 13.5c22.7.5 45.3.7 68 .5 7 2.4 9 7 5.5 14-1.4 2-3.3 3.3-5.5 4h-64l-4-2c10.4-2 10.4-3 0-3v-8h-4v-20h4v-4h8v-4h4v-4h4a13 13 0 0 0-.5-5c-.7 1-1.6 1.1-2.5.5.8-.7 1-1.5 1-2.5 6.3-6.6 11.6-14 16-22l27.5-39c2.8-11.2-1.4-14.7-12.5-10.5a1993 1993 0 0 0-36 40.5c-2.2-.7-3.7.3-4.5 3a5 5 0 0 1-.5-3c-3.9-1.3-7.9-2-12-2v-8h8c.4-5.2 1.4-5.2 3 0 1-5.3 1.3-10.6 1-16 3.4.2 6.7-.2 10-1a8 8 0 0 1 6-3c.2-2.5-.8-4.3-3-5.5a19 19 0 0 0 5-3c-1.3-.4-2-1.3-2-2.5 6-8.2 13.7-14.4 23-18.5a35 35 0 0 1 20 2.5c0 .5.4.9 1 1a51 51 0 0 0 0-20 70 70 0 0 1-15 2c-2-1.2-4.4-1.9-7-2-7.7.9-12.6 5.2-14.5 13-1 .8-2.2 1.2-3.5 1v-12c-3.5.5-6.5-.3-9-2.5l-30-1c-3.7-.7-7-2.2-10-4.5a12.8 12.8 0 0 1-6 3l-9-2c3.2-.5 6.2-1.5 9-3 2.2 2.4 3.2 1.8 3-2h-48v-3c20.2-1 45.7-1.6 76.5-2 7.9 0 15.4-.7 22.5-2-.2-1 .2-1.7 1-2 0 .4.1.8.5 1 1-.8 1.6-1.8 2-3l1 2c1.4-2.2 2.2-4.5 2.5-7a25 25 0 0 1 7 .5c.5 2.4 1.8 4 4 5a65 65 0 0 1-1 10.5c2.7.2 5.4 0 8-.5-5-.9-4.7-1.5 1-2-2.3-1-4.7-1.9-7-2.5 6.7-.3 13.4-1 20-2-.4.7-1 1.2-2 1.5 2.7.5 5-.4 7-2.5 1 1.2 1.3 2.5 1 4h8v-6c-4.6.8-7.2-1-8-5.5 1-2.8 1.6-5.6 2-8.5 1.5.3 2.8 0 4-1a6.9 6.9 0 0 0-5-3c-2.3 1.9-5 2.9-8 3a61 61 0 0 0-17-.5c-2.7 1.3-5 3.1-7 5.5-1-2.6-1.3-5.3-1-8h8c-.3-2.6 0-5.1 1-7.5 4-.7 8-.7 12 0a5.7 5.7 0 0 1 3 5.5c4 0 6-2 6-6h6v-4c1.3-.2 2.5.2 3.5 1a41.6 41.6 0 0 0 5.5 23c1.4 17.2 1.1 34.4-1 51.5a64.9 64.9 0 0 1-1.5 32.5l-2.5 3.5c.8 1.8 1.1 3.5 1 5a80.2 80.2 0 0 1-4 15c1.4 2.4 1 4.5-1 6.5a7.2 7.2 0 0 1-2-6h-4v32h4v7c-10.6-1-21.3-1.2-32-.5-2.9 2.2-6.2 3-10 2.5v-17h-8c.4 7.2-.2 14.2-2 21z"
       transform="matrix(.26458 0 0 .26458 -8.3 -4.9)"
       id="path452" />
  </g>
  <g
     style="clip-rule:evenodd;fill-rule:evenodd;image-rendering:optimizeQuality;shape-rendering:geometricPrecision;text-rendering:geometricPrecision"
     id="g458">
    <path
       style="opacity:1"
       fill="#95a4aa"
       d="M339.5 264.5c0 .7.3 1 1 1a7.1 7.1 0 0 1-6 1.5 9 9 0 0 1 5-2.5z"
       transform="matrix(.26458 0 0 .26458 -8.3 -4.9)"
       id="path456" />
  </g>
  <g
     style="clip-rule:evenodd;fill-rule:evenodd;image-rendering:optimizeQuality;shape-rendering:geometricPrecision;text-rendering:geometricPrecision"
     id="g462">
    <path
       style="opacity:1"
       fill="#dfe2e6"
       d="M418.5 282.5c47.5-1 95.2-1.3 143-1 .2 1.3-.1 2.3-1 3-47-2-94.3-2.7-142-2z"
       transform="matrix(.26458 0 0 .26458 -8.3 -4.9)"
       id="path460" />
  </g>
  <g
     style="clip-rule:evenodd;fill-rule:evenodd;image-rendering:optimizeQuality;shape-rendering:geometricPrecision;text-rendering:geometricPrecision"
     id="g466">
    <path
       style="opacity:1"
       fill="#fefefe"
       d="M418.5 282.5c47.7-.7 95 0 142 2a72 72 0 0 0-1 11c-.8.3-1.2 1-1 2h-138a38.6 38.6 0 0 1-2-15z"
       transform="matrix(.26458 0 0 .26458 -8.3 -4.9)"
       id="path464" />
  </g>
  <g
     style="clip-rule:evenodd;fill-rule:evenodd;image-rendering:optimizeQuality;shape-rendering:geometricPrecision;text-rendering:geometricPrecision"
     id="g470">
    <path
       style="opacity:1"
       fill="#f7f8f9"
       d="M357.5 282.5h42c-.4 5.8.3 11.5 2 17l-2.5 1a84 84 0 0 0-83 20 153 153 0 0 0 3-27c2-1.7 4.1-3 6.5-4a93 93 0 0 1 32-7z"
       transform="matrix(.26458 0 0 .26458 -8.3 -4.9)"
       id="path468" />
  </g>
  <g
     style="clip-rule:evenodd;fill-rule:evenodd;image-rendering:optimizeQuality;shape-rendering:geometricPrecision;text-rendering:geometricPrecision"
     id="g474">
    <path
       style="opacity:1"
       fill="#f7f9f9"
       d="M599.5 282.5c.5 5.3-.1 10.3-2 15-6.6 1-13.3 1.7-20 2a50.8 50.8 0 0 0 2-17h20z"
       transform="matrix(.26458 0 0 .26458 -8.3 -4.9)"
       id="path472" />
  </g>
  <g
     style="clip-rule:evenodd;fill-rule:evenodd;image-rendering:optimizeQuality;shape-rendering:geometricPrecision;text-rendering:geometricPrecision"
     id="g478">
    <path
       style="opacity:1"
       fill="#979ea2"
       d="M54.5 270.5c-.3 5.5 0 10.9 1 16 0 .5-.4.9-1 1a37.1 37.1 0 0 1 0-17z"
       transform="matrix(.26458 0 0 .26458 -8.3 -4.9)"
       id="path476" />
  </g>
  <g
     style="clip-rule:evenodd;fill-rule:evenodd;image-rendering:optimizeQuality;shape-rendering:geometricPrecision;text-rendering:geometricPrecision"
     id="g482">
    <path
       style="opacity:1"
       fill="#acb7b8"
       d="M599.5 282.5c1 4.8 1.3 9.8 1 15h-3c1.9-4.7 2.5-9.7 2-15z"
       transform="matrix(.26458 0 0 .26458 -8.3 -4.9)"
       id="path480" />
  </g>
  <g
     style="clip-rule:evenodd;fill-rule:evenodd;image-rendering:optimizeQuality;shape-rendering:geometricPrecision;text-rendering:geometricPrecision"
     id="g486">
    <path
       style="opacity:1"
       fill="#bbc1c7"
       d="M235.5 207.5c2.6 2 4.4 4.7 5.5 8a69 69 0 0 1 4 33 70 70 0 0 1-47.5 61.5c-13.5 2.7-26.8 6-40 10l-17 8.5a55.4 55.4 0 0 1 29-31.5c33 4 55-9.5 66-40.5.8-.3 1.2-1 1-2a65 65 0 0 0-1-47z"
       transform="matrix(.26458 0 0 .26458 -8.3 -4.9)"
       id="path484" />
  </g>
  <g
     style="clip-rule:evenodd;fill-rule:evenodd;image-rendering:optimizeQuality;shape-rendering:geometricPrecision;text-rendering:geometricPrecision"
     id="g490">
    <path
       style="opacity:1"
       fill="#f8f9fa"
       d="M84.5 331.5c-6.2-1.6-12.2-1-18 2a59.1 59.1 0 0 0-12 8 74 74 0 0 1-.5-21 38.5 38.5 0 0 1 40.5-7.5 24.6 24.6 0 0 1 15.5 24.5c-1.1 3.2-3 5.9-5.5 8a25.2 25.2 0 0 0-20-14z"
       transform="matrix(.26458 0 0 .26458 -8.3 -4.9)"
       id="path488" />
  </g>
  <g
     style="clip-rule:evenodd;fill-rule:evenodd;image-rendering:optimizeQuality;shape-rendering:geometricPrecision;text-rendering:geometricPrecision"
     id="g494">
    <path
       style="opacity:1"
       fill="#f5f7f7"
       d="M363.5 315.5c8-.2 16 0 24 .5l21 5a184 184 0 0 0 15 21 42 42 0 0 1-16-1 575 575 0 0 1-35-15c-7.8-2.6-15.8-4.3-24-5 4.8-2.5 9.8-4.4 15-5.5z"
       transform="matrix(.26458 0 0 .26458 -8.3 -4.9)"
       id="path492" />
  </g>
  <g
     style="clip-rule:evenodd;fill-rule:evenodd;image-rendering:optimizeQuality;shape-rendering:geometricPrecision;text-rendering:geometricPrecision"
     id="g498">
    <path
       style="opacity:1"
       fill="#fcfdfe"
       d="M428.5 316.5c40.9-1.3 81.2-1.3 121 0-5 .5-9.4 2.7-13 6.5a91.3 91.3 0 0 1-49.5 10.5c-10.4.5-20.5-.7-30.5-3.5-9.8-3.7-19.1-8.2-28-13.5z"
       transform="matrix(.26458 0 0 .26458 -8.3 -4.9)"
       id="path496" />
  </g>
  <g
     style="clip-rule:evenodd;fill-rule:evenodd;image-rendering:optimizeQuality;shape-rendering:geometricPrecision;text-rendering:geometricPrecision"
     id="g502">
    <path
       style="opacity:1"
       fill="#f4f6f7"
       d="M599.5 314.5c.3 6.5 0 12.9-1 19a35 35 0 0 0-20-2.5 56.6 56.6 0 0 0-23 18.5c-4 4.6-8.3 9-13 13l-6-5a91 91 0 0 0 33-38 86 86 0 0 0 15-3c5-.1 10-.8 15-2z"
       transform="matrix(.26458 0 0 .26458 -8.3 -4.9)"
       id="path500" />
  </g>
  <g
     style="clip-rule:evenodd;fill-rule:evenodd;image-rendering:optimizeQuality;shape-rendering:geometricPrecision;text-rendering:geometricPrecision"
     id="g506">
    <path
       style="opacity:1"
       fill="#c0c6cc"
       d="M256.5 327.5a31.1 31.1 0 0 0-31 2.5 79.7 79.7 0 0 0-24.5 73.5 93.6 93.6 0 0 0-23.5-14c1.1-.3 1.8-1.1 2-2.5-5-30.3 5.7-53.3 32-69 3.6-1 7.3-1.5 11-1.5 10.7 1 21 3.7 31 8 1.7.4 2.7 1.4 3 3z"
       transform="matrix(.26458 0 0 .26458 -8.3 -4.9)"
       id="path504" />
  </g>
  <g
     style="clip-rule:evenodd;fill-rule:evenodd;image-rendering:optimizeQuality;shape-rendering:geometricPrecision;text-rendering:geometricPrecision"
     id="g510">
    <path
       style="opacity:1"
       fill="#828d92"
       d="M599.5 314.5a51 51 0 0 1 0 20c-.6-.1-1-.5-1-1 1-6.1 1.3-12.5 1-19z"
       transform="matrix(.26458 0 0 .26458 -8.3 -4.9)"
       id="path508" />
  </g>
  <g
     style="clip-rule:evenodd;fill-rule:evenodd;image-rendering:optimizeQuality;shape-rendering:geometricPrecision;text-rendering:geometricPrecision"
     id="g514">
    <path
       style="opacity:1"
       fill="#bfc5cb"
       d="M428.5 316.5c8.9 5.3 18.2 9.8 28 13.5 10 2.8 20.1 4 30.5 3.5 17.5 1.2 34-2.3 49.5-10.5 3.6-3.8 8-6 13-6.5-17.5 30-43.5 41.7-78 35.5a69.3 69.3 0 0 1-43-35.5z"
       transform="matrix(.26458 0 0 .26458 -8.3 -4.9)"
       id="path512" />
  </g>
  <g
     style="clip-rule:evenodd;fill-rule:evenodd;image-rendering:optimizeQuality;shape-rendering:geometricPrecision;text-rendering:geometricPrecision"
     id="g518">
    <path
       style="opacity:1"
       fill="#3d4244"
       d="M84.5 331.5c-6.1-.2-12.1.4-18 2 5.8-3 11.8-3.6 18-2z"
       transform="matrix(.26458 0 0 .26458 -8.3 -4.9)"
       id="path516" />
  </g>
  <g
     style="clip-rule:evenodd;fill-rule:evenodd;image-rendering:optimizeQuality;shape-rendering:geometricPrecision;text-rendering:geometricPrecision"
     id="g522">
    <path
       style="opacity:1"
       fill="#f9fafa"
       d="M347.5 338.5c6.8.9 13.5 2.4 20 4.5 11 5.5 22.4 10.5 34 15 6 1.5 12 2.3 18 2.5 7.4-.5 14.8-1.4 22-2.5a118 118 0 0 0 18 10c-17.6 8-36 10.7-55 8l-34-14a94.6 94.6 0 0 0-89.5 8.5 206.5 206.5 0 0 0-54.5-11c2-3.5 4-6.8 6.5-10 3.3-4 7.5-5.4 12.5-4.5a54.5 54.5 0 0 0 57-3.5c15-2.2 30-3.2 45-3z"
       transform="matrix(.26458 0 0 .26458 -8.3 -4.9)"
       id="path520" />
  </g>
  <g
     style="clip-rule:evenodd;fill-rule:evenodd;image-rendering:optimizeQuality;shape-rendering:geometricPrecision;text-rendering:geometricPrecision"
     id="g526">
    <path
       style="opacity:1"
       fill="#aeb7ba"
       d="M347.5 337.5v1c-15-.2-30 .8-45 3 .7-.9 1.7-1.2 3-1 13.9-2.5 27.9-3.5 42-3z"
       transform="matrix(.26458 0 0 .26458 -8.3 -4.9)"
       id="path524" />
  </g>
  <g
     style="clip-rule:evenodd;fill-rule:evenodd;image-rendering:optimizeQuality;shape-rendering:geometricPrecision;text-rendering:geometricPrecision"
     id="g530">
    <path
       style="opacity:1"
       fill="#c0c7cb"
       d="M67.5 355.5c7.9-1.3 14.7.7 20.5 6 .7 1.7.7 3.3 0 5-9 8.7-18.4 17-28 25-2.4-9.2-3.8-18.5-4-28 3.5-3.3 7.3-6 11.5-8z"
       transform="matrix(.26458 0 0 .26458 -8.3 -4.9)"
       id="path528" />
  </g>
  <g
     style="clip-rule:evenodd;fill-rule:evenodd;image-rendering:optimizeQuality;shape-rendering:geometricPrecision;text-rendering:geometricPrecision"
     id="g534">
    <path
       style="opacity:1"
       fill="#f7f9f9"
       d="M319.5 372.5c23.8-1.6 45.8 4 66 16.5-6.4 2-12.4 4.9-18 8.5a63.7 63.7 0 0 0-41-8c-9-.3-16.7-3.7-23-10a4.3 4.3 0 0 1 3-2.5c4.5-1.4 8.8-3 13-4.5z"
       transform="matrix(.26458 0 0 .26458 -8.3 -4.9)"
       id="path532" />
  </g>
  <g
     style="clip-rule:evenodd;fill-rule:evenodd;image-rendering:optimizeQuality;shape-rendering:geometricPrecision;text-rendering:geometricPrecision"
     id="g538">
    <path
       style="opacity:1"
       fill="#f5f7f7"
       d="M335.5 419.5c-.8.3-1.5.8-2 1.5-11 .7-22 .7-33 0-6.3-5.4-13-10.3-20-14.5a132 132 0 0 0-59-22v-6c14.6.1 28.9 2 43 5.5 18.5 7.4 36.8 15 55 23 8.3.3 16.7.3 25 0l4 2c-4.8 3-9.1 6.5-13 10.5z"
       transform="matrix(.26458 0 0 .26458 -8.3 -4.9)"
       id="path536" />
  </g>
  <g
     style="clip-rule:evenodd;fill-rule:evenodd;image-rendering:optimizeQuality;shape-rendering:geometricPrecision;text-rendering:geometricPrecision"
     id="g542">
    <path
       style="opacity:1"
       fill="#011019"
       d="M79.5 380.5h12v8h-8v16c-5.5 2-10.8 4.1-16 6.5l-6.5 6.5-1-1 .5 6c2.7.4 5.3 1 8 1.5-.5.4-.8 1-1 1.5l3.5 1 9-2c8.4 1.4 17 2.4 25.5 3 35.3 1 70.7 1.3 106 1 .5 3.2-.2 6-2 8.5-32.7.7-65.3.7-98 0-2.9-.1-5.5-.8-8-2-17.3-.5-34.7-.7-52-.5v-12h-4v-4c-4-.7-4-1.3 0-2v-8h4v-12h-4v4h-3v-8h11v4h12v-4h4v-4h8v-8z"
       transform="matrix(.26458 0 0 .26458 -8.3 -4.9)"
       id="path540" />
  </g>
  <g
     style="clip-rule:evenodd;fill-rule:evenodd;image-rendering:optimizeQuality;shape-rendering:geometricPrecision;text-rendering:geometricPrecision"
     id="g546">
    <path
       style="opacity:1;fill:#bcc3c9;fill-opacity:0.50142848"
       fill="#bcc3c9"
       d="M519.5 374.5c1.4 1 2.6 2.4 3.5 4 .7 5.2-.8 9.7-4.5 13.5-5 3.2-10.4 5.9-16 8a745 745 0 0 0-64 25c-4.3 3.5-6.3 8-6 13.5a5.7 5.7 0 0 1-3.5-5c-2-7-.2-12.4 5.5-16.5 25.5-9.8 51.2-19.1 77-28 5.7-3.2 8.3-8 8-14.5z"
       transform="matrix(.26458 0 0 .26458 -8.3 -4.9)"
       id="path544" />
  </g>
  <g
     style="clip-rule:evenodd;fill-rule:evenodd;image-rendering:optimizeQuality;shape-rendering:geometricPrecision;text-rendering:geometricPrecision"
     id="g550">
    <path
       style="opacity:1"
       fill="#f9fbfa"
       d="M191.5 419.5a2049 2049 0 0 1-128 0 117.8 117.8 0 0 1 101-13.5c9.6 3.5 18.6 8 27 13.5z"
       transform="matrix(.26458 0 0 .26458 -8.3 -4.9)"
       id="path548" />
  </g>
  <g
     style="clip-rule:evenodd;fill-rule:evenodd;image-rendering:optimizeQuality;shape-rendering:geometricPrecision;text-rendering:geometricPrecision"
     id="g554">
    <path
       style="opacity:1"
       fill="#ced5d8"
       d="M264.5 419.5c-12.2 1-24.5 1.3-37 1-1.8-4.8-3.4-9.6-5-14.5 15 1.2 29 5.7 42 13.5z"
       transform="matrix(.26458 0 0 .26458 -8.3 -4.9)"
       id="path552" />
  </g>
  <g
     style="clip-rule:evenodd;fill-rule:evenodd;image-rendering:optimizeQuality;shape-rendering:geometricPrecision;text-rendering:geometricPrecision"
     id="g558">
    <path
       style="opacity:1"
       fill="#c3cbcd"
       d="M590.5 393.5c.6.2 1 .7 1 1.5l-6 26.5c-3.7.3-7.4 0-11-1 5.6-8.9 11-17.9 16-27z"
       transform="matrix(.26458 0 0 .26458 -8.3 -4.9)"
       id="path556" />
  </g>
  <g
     style="clip-rule:evenodd;fill-rule:evenodd;image-rendering:optimizeQuality;shape-rendering:geometricPrecision;text-rendering:geometricPrecision"
     id="g562">
    <path
       style="opacity:1"
       fill="#889095"
       d="M63.5 419.5a2049 2049 0 0 0 128 0c.8.3 1.5.8 2 1.5-44 .7-88 .7-132 0 .5-.7 1.2-1.2 2-1.5z"
       transform="matrix(.26458 0 0 .26458 -8.3 -4.9)"
       id="path560" />
  </g>
  <g
     style="clip-rule:evenodd;fill-rule:evenodd;image-rendering:optimizeQuality;shape-rendering:geometricPrecision;text-rendering:geometricPrecision"
     id="g566">
    <path
       style="opacity:1"
       fill="#9ca8af"
       d="M264.5 419.5c1-.2 1.7.2 2 1a381 381 0 0 1-39 1v-1c12.5.3 24.8 0 37-1z"
       transform="matrix(.26458 0 0 .26458 -8.3 -4.9)"
       id="path564" />
  </g>
  <g
     style="clip-rule:evenodd;fill-rule:evenodd;image-rendering:optimizeQuality;shape-rendering:geometricPrecision;text-rendering:geometricPrecision"
     id="g570">
    <path
       style="opacity:1"
       fill="#677279"
       d="M267.5 438.5v1c-9.5-.3-18.8 0-28 1-.5 0-.9-.4-1-1 9.6-1 19.3-1.3 29-1z"
       transform="matrix(.26458 0 0 .26458 -8.3 -4.9)"
       id="path568" />
  </g>
  <g
     style="clip-rule:evenodd;fill-rule:evenodd;image-rendering:optimizeQuality;shape-rendering:geometricPrecision;text-rendering:geometricPrecision"
     id="g574">
    <path
       style="opacity:1"
       fill="#93989c"
       d="M267.5 439.5v-1c15.3-.3 30.7 0 46 1-.1.6-.5 1-1 1-14.5-1-29.2-1.3-44-1h-1z"
       transform="matrix(.26458 0 0 .26458 -8.3 -4.9)"
       id="path572" />
  </g>
  <g
     style="clip-rule:evenodd;fill-rule:evenodd;image-rendering:optimizeQuality;shape-rendering:geometricPrecision;text-rendering:geometricPrecision"
     id="g578">
    <path
       style="opacity:1"
       fill="#f9fafa"
       d="M268.5 439.5c14.8-.3 29.5 0 44 1a284 284 0 0 1-14 14.5c-6.7.5-13.3.7-20 .5-2.8-5.7-6.2-11-10-16z"
       transform="matrix(.26458 0 0 .26458 -8.3 -4.9)"
       id="path576" />
  </g>
  <g
     style="clip-rule:evenodd;fill-rule:evenodd;image-rendering:optimizeQuality;shape-rendering:geometricPrecision;text-rendering:geometricPrecision"
     id="g582">
    <path
       style="opacity:1"
       fill="#bcc2c7"
       d="M605.5 438.5a333 333 0 0 1-26 1.5c-5.6 3.3-11 7-16 11-.8 1-1.2 2.2-1 3.5-8.5.3-16.9 0-25-1 5.6-3.6 11-7.6 16-12 1.2-1 2.5-1.8 4-2.5 16-.5 32-.7 48-.5z"
       transform="matrix(.26458 0 0 .26458 -8.3 -4.9)"
       id="path580" />
  </g>
  <g
     style="clip-rule:evenodd;fill-rule:evenodd;image-rendering:optimizeQuality;shape-rendering:geometricPrecision;text-rendering:geometricPrecision"
     id="g586">
    <path
       style="opacity:1"
       fill="#021119"
       d="M280.5 406.5c7 4.2 13.7 9 20 14.5 11 .7 22 .7 33 0 .5-.7 1.2-1.2 2-1.5 1 0 2-.4 3-1a9.8 9.8 0 0 1 5 10h-4a26 26 0 0 1-3 11c0 1.2.4 2.2 1 3a443 443 0 0 1-24 26 42.6 42.6 0 0 1-12 6c-.3 2.5-1 4.8-2.5 7l-8 6c-2.6 9.8-9.1 14.1-19.5 13v8h-20v-8a193.9 193.9 0 0 1-32 2v3h-8v-3h-16c-.3-3.3 0-6.4 1-9.5l23-1c1.6-.2 2.9-.7 4-1.5 5.3.2 10.7 0 16-.5-2.1-5.4-4.5-10.7-7-16-62-.5-124-.7-186-.5-5.6-2.6-7.4-7-5.5-13 1-2 2.4-3.6 4.5-4.5 59-.2 118-.7 177-1.5-1-2.3-2.3-4.3-4-6 1.3-1 1.3-2 0-3a50.5 50.5 0 0 1 20 0 13 13 0 0 0-1 4 26 26 0 0 1 2 11 26 26 0 0 0 17-3.5c7.2-.2 14.2-.7 21-1.5h1c6.7.2 13.3 0 20-.5a284 284 0 0 0 14-14.5c.5 0 .9-.4 1-1-15.3-1-30.7-1.3-46-1a4.5 4.5 0 0 0-2-3c-4-1-8-1.3-12-1v3a61 61 0 0 1-11-.5c1-4.7 1.3-9.6 1-14.5l-8 1v5h-8a6 6 0 0 1 2-5l-2-2c13.2.3 26.2 0 39-1h5v-4c-2.3-.3-4.5 0-6.5 1a7 7 0 0 0-5.5-4c2.5-1.6 5.2-2.6 8-3-.3-3 0-6 1-9l2 3c2.3.5 4.3 1.5 6 3 1.2-.7 2.6-1 4-1z"
       transform="matrix(.26458 0 0 .26458 -8.3 -4.9)"
       id="path584" />
  </g>
  <g
     style="clip-rule:evenodd;fill-rule:evenodd;image-rendering:optimizeQuality;shape-rendering:geometricPrecision;text-rendering:geometricPrecision"
     id="g590">
    <path
       style="opacity:1"
       fill="#bec4ca"
       d="M267.5 439.5h1c3.8 5 7.2 10.3 10 16h-1a241 241 0 0 1-31-1 68.7 68.7 0 0 1-7-14c9.2-1 18.5-1.3 28-1z"
       transform="matrix(.26458 0 0 .26458 -8.3 -4.9)"
       id="path588" />
  </g>
  <g
     style="clip-rule:evenodd;fill-rule:evenodd;image-rendering:optimizeQuality;shape-rendering:geometricPrecision;text-rendering:geometricPrecision"
     id="g594">
    <path
       style="opacity:1;fill:#bfc5cb;fill-opacity:0.5032236"
       fill="#bfc5cb"
       d="M565.5 399.5c-4.4 8-9.7 15.4-16 22-19.4 15.5-38 32-56 49.5a104.4 104.4 0 0 1-20 14c-4.6 1.7-9.2 3-14 4l-54 1a63.8 63.8 0 0 0-39.5 24.5 734.6 734.6 0 0 0-29.5 49l-33 54c-9.7.2-19.3 0-29-.5-1.8-1.5-2.3-3.3-1.5-5.5a1600 1600 0 0 0 59-90 187 187 0 0 1 29.5-35.5 90.6 90.6 0 0 1 62-20.5c8.8.2 17.7.6 26.5 1 7.3.1 14.4-.7 21.5-2.5 6.8-3 13.2-6.6 19-11 14.3-10.8 29-21.2 44-31 9.7-8.5 20-16 31-22.5z"
       transform="matrix(.26458 0 0 .26458 -8.3 -4.9)"
       id="path592" />
  </g>
  <g
     style="clip-rule:evenodd;fill-rule:evenodd;image-rendering:optimizeQuality;shape-rendering:geometricPrecision;text-rendering:geometricPrecision"
     id="g598">
    <path
       style="opacity:1"
       fill="#8e979e"
       d="M537.5 453.5c8.2 1 16.5 1.3 25 1 13.8-.3 27.5 0 41 1-22.7.2-45.3 0-68-.5.5-.7 1.2-1.2 2-1.5z"
       transform="matrix(.26458 0 0 .26458 -8.3 -4.9)"
       id="path596" />
  </g>
  <g
     style="clip-rule:evenodd;fill-rule:evenodd;image-rendering:optimizeQuality;shape-rendering:geometricPrecision;text-rendering:geometricPrecision"
     id="g602">
    <path
       style="opacity:1"
       fill="#a2a9b0"
       d="M46.5 473.5c62-.2 124 0 186 .5 2.5 5.3 4.9 10.6 7 16-5.3.5-10.7.7-16 .5a54.2 54.2 0 0 0-8-15l-169-2z"
       transform="matrix(.26458 0 0 .26458 -8.3 -4.9)"
       id="path600" />
  </g>
  <g
     style="clip-rule:evenodd;fill-rule:evenodd;image-rendering:optimizeQuality;shape-rendering:geometricPrecision;text-rendering:geometricPrecision"
     id="g606">
    <path
       style="opacity:1"
       fill="#b6bfc6"
       d="M256.5 474.5c7.4-.3 14.7 0 22 1l-17 16c-1.5-5.7-3.1-11.4-5-17z"
       transform="matrix(.26458 0 0 .26458 -8.3 -4.9)"
       id="path604" />
  </g>
  <g
     style="clip-rule:evenodd;fill-rule:evenodd;image-rendering:optimizeQuality;shape-rendering:geometricPrecision;text-rendering:geometricPrecision"
     id="g610">
    <path
       style="opacity:1"
       fill="#aab1b8"
       d="M539.5 473.5h64a1786 1786 0 0 1-60 1.5c-6.5 5-12.9 10.2-19 15.5-8.5.3-16.9 0-25-1 6.1-5 12.1-10.1 18-15.5 7.3-.5 14.7-.7 22-.5z"
       transform="matrix(.26458 0 0 .26458 -8.3 -4.9)"
       id="path608" />
  </g>
  <g
     style="clip-rule:evenodd;fill-rule:evenodd;image-rendering:optimizeQuality;shape-rendering:geometricPrecision;text-rendering:geometricPrecision"
     id="g614">
    <path
       style="opacity:1"
       fill="#071319"
       d="M549.5 421.5c0 1-.2 1.8-1 2.5 1 .6 1.8.5 2.5-.5.5 1.6.7 3.3.5 5h-4v4h-4v4h-8v4h-4v20h4v8c10.4 0 10.4 1 0 3l4 2c-7.3-.2-14.7 0-22 .5a388.2 388.2 0 0 1-19 16.5c35 1 70 1.3 105 1 4.2.7 6.6 3.2 7 7.5.4 5.3-2 8.5-7 9.5-64.7-.2-129.3 0-194 .5a35.9 35.9 0 0 0-25 15.5c27.3 1 54.7 1.3 82 1 46.7-.5 93.4 0 140 1.5 5.8 6.5 5.1 12.1-2 17-38.7.5-77.3.7-116 .5-39.7-.2-79.3 0-119 .5-2.9 5-5.9 9.8-9 14.5v-3h-5v-4h-4v4c-2.7-.2-5.4 0-8 .5 1.7 6.4-.7 8.5-7 6.5 9.2-16.7 19-33 29.5-49a63.8 63.8 0 0 1 39.5-24.5l54-1c4.8-1 9.4-2.3 14-4 7.2-3.9 13.9-8.6 20-14 18-17.5 36.6-34 56-49.5z"
       transform="matrix(.26458 0 0 .26458 -8.3 -4.9)"
       id="path612" />
  </g>
  <g
     style="clip-rule:evenodd;fill-rule:evenodd;image-rendering:optimizeQuality;shape-rendering:geometricPrecision;text-rendering:geometricPrecision"
     id="g618">
    <path
       style="opacity:1"
       fill="#454d51"
       d="M499.5 489.5c8.2 1 16.5 1.3 25 1 26.5-.3 52.8 0 79 1-35 .3-70 0-105-1 .1-.6.5-1 1-1z"
       transform="matrix(.26458 0 0 .26458 -8.3 -4.9)"
       id="path616" />
  </g>
  <g
     style="clip-rule:evenodd;fill-rule:evenodd;image-rendering:optimizeQuality;shape-rendering:geometricPrecision;text-rendering:geometricPrecision"
     id="g622">
    <path
       style="opacity:1"
       fill="#bdc5cc"
       d="M214.5 509.5h30c.7 3 1.7 6 3 9a55 55 0 0 1-6 6.5c-8 .5-16 .7-24 .5a72.7 72.7 0 0 1-3-16z"
       transform="matrix(.26458 0 0 .26458 -8.3 -4.9)"
       id="path620" />
  </g>
  <g
     style="clip-rule:evenodd;fill-rule:evenodd;image-rendering:optimizeQuality;shape-rendering:geometricPrecision;text-rendering:geometricPrecision"
     id="g626">
    <path
       style="opacity:1"
       fill="#bcc3c9"
       d="M603.5 508.5c-34.2.8-68.5 1.3-103 1.5-12 3.7-23.4 8.8-34 15.5-27.3.3-54.7 0-82-1 6-8.7 14.4-13.9 25-15.5 64.7-.5 129.3-.7 194-.5z"
       transform="matrix(.26458 0 0 .26458 -8.3 -4.9)"
       id="path624" />
  </g>
  <g
     style="clip-rule:evenodd;display:inline;fill-rule:evenodd;image-rendering:optimizeQuality;shape-rendering:geometricPrecision;text-rendering:geometricPrecision"
     id="g630">
    <path
       style="opacity:1"
       fill="#071419"
       d="M313.5 468.5a6124.7 6124.7 0 0 1-127 148.5c-34.3.7-68.7.7-103 0A53.3 53.3 0 0 1 42 578.5c-.7-4.3-.7-8.7 0-13l3.5-3.5c42-.5 84-.7 126-.5 12.3.2 24.7 0 37-.5 4.5-5.3 9.1-10.5 14-15.5-16-1-32-1.3-48-1-42.7.2-85.3 0-128-.5-7.6-5.5-8-11.5-1-18 57.3-.5 114.7-.7 172-.5 8 .2 16 0 24-.5a55 55 0 0 0 6-6.5c-1.3-3-2.3-6-3-9h-30c-56.2-.8-112.5-1.3-169-1.5-6.2-5-6.5-10.4-1-16l4-1c58.3-.5 116.7-.7 175-.5a8.8 8.8 0 0 1-4 1.5l-23 1c-1 3-1.3 6.2-1 9.5h16v3h8v-3c10.7.2 21.4-.5 32-2v8h20v-8c10.4 1.1 16.9-3.2 19.5-13l8-6c1.4-2.2 2.2-4.5 2.5-7 4.4-1.4 8.4-3.4 12-6z"
       transform="matrix(.26458 0 0 .26458 -8.3 -4.9)"
       id="path628" />
  </g>
  <g
     style="clip-rule:evenodd;fill-rule:evenodd;image-rendering:optimizeQuality;shape-rendering:geometricPrecision;text-rendering:geometricPrecision"
     id="g634">
    <path
       style="opacity:1"
       fill="#bcc3cc"
       d="M174.5 544.5c16-.3 32 0 48 1-4.9 5-9.5 10.2-14 15.5-12.3.5-24.7.7-37 .5 0-1-.4-2-1-3l4-14z"
       transform="matrix(.26458 0 0 .26458 -8.3 -4.9)"
       id="path632" />
  </g>
  <g
     style="clip-rule:evenodd;fill-rule:evenodd;image-rendering:optimizeQuality;shape-rendering:geometricPrecision;text-rendering:geometricPrecision"
     id="g638">
    <path
       style="opacity:1"
       fill="#babfc5"
       d="M488.5 544.5c-11 4.3-21.7 9.5-32 15.5 48.8.2 97.5.7 146 1.5h-149c-31.3.2-62.7 0-94-.5a297.8 297.8 0 0 0 10-16c39.7-.5 79.3-.7 119-.5z"
       transform="matrix(.26458 0 0 .26458 -8.3 -4.9)"
       id="path636" />
  </g>
  <g
     style="clip-rule:evenodd;fill-rule:evenodd;image-rendering:optimizeQuality;shape-rendering:geometricPrecision;text-rendering:geometricPrecision"
     id="g642">
    <path
       style="opacity:1"
       fill="#021019"
       d="M360.5 559.5c-.1.6-.4 1.1-1 1.5 31.3.5 62.7.7 94 .5l10 3c13.3-.4 26.6-.4 40 0v8c5.2.4 10.2-.5 15-2.5l2-5c10.3-.5 20.7-.7 31-.5v8c9.4-.3 18.7 0 28 1-15.2.5-30.2 1.5-45 3-5.1-1.6-9.8-1-14 2l-11.5-4a25.8 25.8 0 0 1-10.5 2.5l7 1c-26.2.2-52.2.7-78 1.5-26.5-.3-52.8 0-79 1l-10 17c-.1.6-.4 1.1-1 1.5a5.6 5.6 0 0 1 2 5.5c25.3.2 50.7 0 76-.5-5.3-.8-10.6-1.5-16-2 1.8-.2 3.4-.7 5-1.5l53.5-1c29.8.6 59.7.6 89.5 0 6.8.3 13.5 1 20 2.5-8.7.2-17.4.9-26 2 8.1 0 16.1.8 24 2.5 1.8-1.3 3.8-2 6-2-.3-3 1-4.3 4-4-.2-2 .2-4 1-6a23 23 0 0 0 12-13c-.5-1.6-.9-3.3-1-5h4v-4h8v-4h4a35 35 0 0 0 2 14c-3.4-.3-6.7 0-10 1 1.2 1 2.5 1.3 4 1a25 25 0 0 1-.5 7l-3 2c-.1 3-1 5.6-2.5 8-2.7 2.8-5.6 5.4-8.5 8-3.1-.6-6.3-1-9.5-1-.3 4.3-2.6 6.5-7 6.5.6.4.9.9 1 1.5-88.6 1-177.3 1.3-266 1l33-54c6.3 2 8.7-.1 7-6.5 2.6-.5 5.3-.7 8-.5v-4h4v4h5v3z"
       transform="matrix(.26458 0 0 .26458 -8.3 -4.9)"
       id="path640" />
  </g>
  <g
     style="clip-rule:evenodd;display:inline;fill-rule:evenodd;image-rendering:optimizeQuality;shape-rendering:geometricPrecision;text-rendering:geometricPrecision"
     id="g646">
    <path
       style="opacity:1"
       fill="#0a151a"
       d="M453.5 561.5h149c5.5 1.3 8.1 4.8 8 10.5a50.4 50.4 0 0 1-41 44.5c-.1-.6-.4-1.1-1-1.5 4.4 0 6.7-2.2 7-6.5 3.2 0 6.4.4 9.5 1 3-2.6 5.8-5.2 8.5-8 1.6-2.4 2.4-5 2.5-8l3-2c.5-2.3.7-4.6.5-7-1.5.3-2.8 0-4-1 3.3-1 6.6-1.3 10-1a35 35 0 0 1-2-14h-4v4h-8v4h-4c.1 1.7.5 3.4 1 5a23 23 0 0 1-12 13c-.8 2-1.2 4-1 6-3-.3-4.3 1-4 4-2.2 0-4.2.7-6 2a111 111 0 0 0-24-2.5c8.6-1.1 17.3-1.8 26-2-6.5-1.4-13.2-2.2-20-2.5-29.8.6-59.7.6-89.5 0l-53.5 1c-1.6.8-3.2 1.3-5 1.5 5.4.5 10.7 1.2 16 2-25.3.5-50.7.7-76 .5.4-2.3-.3-4.1-2-5.5.6-.4.9-.9 1-1.5h65c54 .2 108 0 162-.5a31.3 31.3 0 0 0 20-15.5c.5 0 .9-.4 1-1-53-1-106-1.3-159-1 25.8-.8 51.8-1.3 78-1.5l-7-1c3.7-.1 7.2-1 10.5-2.5l11.5 4c4.2-3 8.9-3.6 14-2 14.8-1.5 29.8-2.5 45-3-9.3-1-18.6-1.3-28-1v-8c-10.3-.2-20.7 0-31 .5l-2 5c-4.8 2-9.8 2.9-15 2.5v-8c-13.4-.4-26.7-.4-40 0l-10-3z"
       transform="matrix(.26458 0 0 .26458 -8.3 -4.9)"
       id="path644" />
  </g>
  <g
     style="clip-rule:evenodd;fill-rule:evenodd;image-rendering:optimizeQuality;shape-rendering:geometricPrecision;text-rendering:geometricPrecision"
     id="g650">
    <path
       style="opacity:1"
       fill="#5f6b73"
       d="M188.5 580.5h-94c-9.8-.3-19.5 0-29 1-.5 0-.9-.4-1-1 41.5-1.3 82.8-1.3 124 0z"
       transform="matrix(.26458 0 0 .26458 -8.3 -4.9)"
       id="path648" />
  </g>
  <g
     style="clip-rule:evenodd;fill-rule:evenodd;image-rendering:optimizeQuality;shape-rendering:geometricPrecision;text-rendering:geometricPrecision"
     id="g654">
    <path
       style="opacity:1"
       fill="#838e94"
       d="M348.5 580.5c26.2-1 52.5-1.3 79-1 53-.3 106 0 159 1-.1.6-.5 1-1 1-56.5-1-113.2-1.3-170-1h-67z"
       transform="matrix(.26458 0 0 .26458 -8.3 -4.9)"
       id="path652" />
  </g>
  <g
     style="clip-rule:evenodd;fill-rule:evenodd;image-rendering:optimizeQuality;shape-rendering:geometricPrecision;text-rendering:geometricPrecision"
     id="g658">
    <path
       style="opacity:1"
       fill="#fafbfb"
       d="M94.5 580.5c.8 5 1.8 10 3 15-4.6 1-9.3 1.3-14 1a33.3 33.3 0 0 1-18-15c9.5-1 19.2-1.3 29-1z"
       transform="matrix(.26458 0 0 .26458 -8.3 -4.9)"
       id="path656" />
  </g>
  <g
     style="clip-rule:evenodd;fill-rule:evenodd;image-rendering:optimizeQuality;shape-rendering:geometricPrecision;text-rendering:geometricPrecision"
     id="g662">
    <path
       style="opacity:1"
       fill="#fcfdfc"
       d="M415.5 580.5c56.8-.3 113.5 0 170 1a31.3 31.3 0 0 1-20 15.5c-54 .5-108 .7-162 .5a73.9 73.9 0 0 1 12-17z"
       transform="matrix(.26458 0 0 .26458 -8.3 -4.9)"
       id="path660" />
  </g>
  <g
     style="clip-rule:evenodd;fill-rule:evenodd;image-rendering:optimizeQuality;shape-rendering:geometricPrecision;text-rendering:geometricPrecision"
     id="g666">
    <path
       style="opacity:1"
       fill="#c0c6cc"
       d="M94.5 580.5h65c2 6 5 11.3 9 16l2-.5c-2.5-4.9-3.8-10-4-15.5h22l-15 16c-29 1-58 1.3-87 1-1.3.2-2.3-.1-3-1 4.7.3 9.4 0 14-1-1.2-5-2.2-10-3-15z"
       transform="matrix(.26458 0 0 .26458 -8.3 -4.9)"
       id="path664" />
  </g>
  <g
     style="clip-rule:evenodd;display:inline;fill-rule:evenodd;image-rendering:optimizeQuality;shape-rendering:geometricPrecision;text-rendering:geometricPrecision"
     id="g670">
    <path
       style="opacity:1"
       fill="#f8fafb"
       d="M159.5 580.5h7c.2 5.5 1.5 10.6 4 15.5l-2 .5c-4-4.7-7-10-9-16z"
       transform="matrix(.26458 0 0 .26458 -8.3 -4.9)"
       id="path668" />
  </g>
  <g
     style="clip-rule:evenodd;fill-rule:evenodd;image-rendering:optimizeQuality;shape-rendering:geometricPrecision;text-rendering:geometricPrecision"
     id="g674">
    <path
       style="opacity:1"
       fill="#bac2cb"
       d="M348.5 580.5h67a73.9 73.9 0 0 0-12 17h-65l10-17z"
       transform="matrix(.26458 0 0 .26458 -8.3 -4.9)"
       id="path672" />
  </g>
  <g
     style="clip-rule:evenodd;fill-rule:evenodd;image-rendering:optimizeQuality;shape-rendering:geometricPrecision;text-rendering:geometricPrecision"
     id="g678">
    <path
       style="opacity:1"
       fill="#20292e"
       d="M173.5 596.5a464 464 0 0 1-43.5 2c-14.7 0-29.2-.3-43.5-1 29 .3 58 0 87-1z"
       transform="matrix(.26458 0 0 .26458 -8.3 -4.9)"
       id="path676" />
  </g>
</svg>
